<?xml version="1.0" encoding="utf-8"?>
<!-- Generator: Adobe Illustrator 16.0.0, SVG Export Plug-In . SVG Version: 6.00 Build 0)  -->
<!DOCTYPE svg PUBLIC "-//W3C//DTD SVG 1.1//EN" "http://www.w3.org/Graphics/SVG/1.1/DTD/svg11.dtd">
<svg version="1.1" id="Layer_1" xmlns="http://www.w3.org/2000/svg" xmlns:xlink="http://www.w3.org/1999/xlink" x="0px" y="0px"
	 width="70px" height="70px" viewBox="-10 -10 70 70" enable-background="new -10 -10 70 70" xml:space="preserve">
<g id="Layer_1_1_">
	<rect x="-10" y="-10" fill="#FFCD58" width="70" height="70"/>
</g>
<g id="Layer_2" display="none">
	<ellipse display="inline" cx="74.789" cy="75" rx="49.789" ry="50"/>
</g>
<g id="Layer_3">
	<g>
		<path fill="#FFFFFF" d="M21.499,34.709c0.019-2.857,0.265-4.836,0.738-5.941c0.474-1.102,1.716-2.562,3.726-4.374
			c1.95-2.306,3.339-4.08,4.166-5.32c0.827-1.242,1.242-2.739,1.242-4.492c0-2.089-0.559-3.695-1.67-4.818
			c-1.113-1.123-2.705-1.684-4.774-1.684c-1.793,0-3.32,0.487-4.582,1.463c-1.261,0.976-1.892,2.41-1.892,4.301h-5.557l-0.088-0.177
			c-0.059-3.172,1.059-5.714,3.355-7.625c2.295-1.911,5.218-2.867,8.764-2.867c3.881,0,6.896,0.991,9.043,2.972
			c2.146,1.98,3.223,4.742,3.223,8.29c0,2.542-0.695,4.868-2.084,6.975c-1.389,2.108-3.228,4.267-5.515,6.474
			c-1.065,1.063-1.71,2.02-1.937,2.865c-0.227,0.848-0.34,2.168-0.34,3.963h-5.819V34.709z M27.529,46.828h-6.091v-6.147h6.091
			V46.828z"/>
	</g>
</g>
</svg>
